<?xml version="1.0" encoding="UTF-8" standalone="no"?>
<!-- Uploaded to: SVG Repo, www.svgrepo.com, Generator: SVG Repo Mixer Tools -->

<svg
   width="800px"
   height="800px"
   viewBox="0 0 24 24"
   fill="none"
   version="1.1"
   id="svg2"
   sodipodi:docname="copy.svg"
   inkscape:version="1.3.2 (091e20ef0f, 2023-11-25, custom)"
   xmlns:inkscape="http://www.inkscape.org/namespaces/inkscape"
   xmlns:sodipodi="http://sodipodi.sourceforge.net/DTD/sodipodi-0.dtd"
   xmlns="http://www.w3.org/2000/svg"
   xmlns:svg="http://www.w3.org/2000/svg">
  <defs
     id="defs2" />
  <sodipodi:namedview
     id="namedview2"
     pagecolor="#ffffff"
     bordercolor="#000000"
     borderopacity="0.25"
     inkscape:showpageshadow="2"
     inkscape:pageopacity="0.0"
     inkscape:pagecheckerboard="0"
     inkscape:deskcolor="#d1d1d1"
     inkscape:zoom="1.06"
     inkscape:cx="399.5283"
     inkscape:cy="400"
     inkscape:window-width="1920"
     inkscape:window-height="1052"
     inkscape:window-x="0"
     inkscape:window-y="0"
     inkscape:window-maximized="1"
     inkscape:current-layer="svg2" />
  <path
     d="M20.9983 10C20.9862 7.82497 20.8897 6.64706 20.1213 5.87868C19.2426 5 17.8284 5 15 5H12C9.17157 5 7.75736 5 6.87868 5.87868C6 6.75736 6 8.17157 6 11V16C6 18.8284 6 20.2426 6.87868 21.1213C7.75736 22 9.17157 22 12 22H15C17.8284 22 19.2426 22 20.1213 21.1213C21 20.2426 21 18.8284 21 16V15"
     stroke="#1C274C"
     stroke-width="1.5"
     stroke-linecap="round"
     id="path1" />
  <path
     d="M3 10V16C3 17.6569 4.34315 19 6 19M18 5C18 3.34315 16.6569 2 15 2H11C7.22876 2 5.34315 2 4.17157 3.17157C3.51839 3.82475 3.22937 4.69989 3.10149 6"
     stroke="#1C274C"
     stroke-width="1.5"
     stroke-linecap="round"
     id="path2" />
  <path
     style="fill:#ffffff;stroke-width:1.20517"
     d="m 325.9434,756.9846 c -40.94408,-1.61553 -66.81951,-6.63196 -87.53977,-16.97117 -29.0707,-14.50599 -48.16863,-40.48724 -55.83188,-75.95492 l -1.61704,-7.48413 -10.05282,-2.43188 C 120.03523,641.83734 82.298838,599.18151 76.362759,547.27892 75.719882,541.65788 75.476923,501.91872 75.661307,432.54717 l 0.282089,-106.13208 2.039973,-3.77358 C 82.499435,314.28759 91.029655,309.0037 100,309.0037 c 8.97035,0 17.50056,5.28389 22.01663,13.63781 l 2.03997,3.77358 0.49744,109.90566 c 0.55003,121.52524 0.14139,113.59432 6.59309,127.95963 7.63949,17.01004 23.46255,32.3474 40.07929,38.84904 l 4.71698,1.84563 V 446.82714 c 0,-163.07681 0.13368,-169.86135 3.85035,-195.41205 8.57842,-58.97323 38.06455,-91.66608 92.72061,-102.80427 28.6239,-5.83319 59.17106,-6.85844 192.72258,-6.46839 l 106.27468,0.3104 -1.74411,-4.58957 c -0.95926,-2.52426 -3.14409,-6.89952 -4.85517,-9.72279 -12.25092,-20.21391 -31.948,-33.105312 -55.406,-36.262267 -10.41339,-1.401423 -231.8553,-0.546545 -253.84596,0.979974 -49.66727,3.447738 -75.4876,10.324113 -93.37159,24.866383 -19.04486,15.48622 -28.73291,37.66902 -33.56211,76.8474 -1.65424,13.42047 -3.58306,18.42293 -8.98524,23.30346 -4.88002,4.40882 -9.65669,6.27649 -16.13167,6.30745 -13.882245,0.0664 -24.333286,-10.39795 -24.355271,-24.38629 -0.01917,-12.19607 4.57305,-38.45152 9.528659,-54.47895 12.491462,-40.39987 38.506492,-69.644064 75.351812,-84.704995 22.24656,-9.09353 47.4039,-13.815511 89.63861,-16.824983 21.04992,-1.49993 245.2942,-2.328237 258.41395,-0.954521 44.88056,4.699266 83.60751,32.833722 101.66088,73.854869 3.77708,8.58235 8.7931,25.14667 8.7931,29.03732 0,1.32547 2.09178,2.14603 10.61321,4.16332 29.62677,7.01361 52.8805,22.33323 67.16603,44.24916 14.83233,22.7548 20.89794,48.27712 23.14126,97.37163 1.35488,29.65119 1.23541,43.56683 -0.42171,49.12123 -5.15832,17.28995 -27.26593,22.78638 -40.08605,9.96626 -6.77425,-6.77425 -7.31356,-9.39065 -7.99854,-38.80447 -1.57033,-67.43147 -7.96935,-90.3284 -29.21552,-104.5387 -11.77073,-7.87275 -28.85905,-12.1031 -58.67724,-14.52602 -21.45962,-1.74374 -252.86628,-1.74374 -274.3259,0 -29.81819,2.42292 -46.90651,6.65327 -58.67724,14.52602 -19.1261,12.79232 -26.24754,33.84573 -28.65952,84.72738 -1.26965,26.78363 -1.26965,289.25411 0,316.03774 1.76534,37.24064 6.10621,57.64972 15.13185,71.14418 13.34376,19.95057 34.61241,26.65929 91.44333,28.84375 31.19389,1.19903 204.65517,1.19903 235.84906,0 56.83092,-2.18446 78.09957,-8.89318 91.44333,-28.84375 7.74926,-11.58611 11.80045,-27.20115 14.32329,-55.20817 0.57919,-6.42991 1.3229,-38.43601 1.65266,-71.12469 l 0.59959,-59.43396 2.7465,-4.95692 c 4.54598,-8.20466 12.07227,-12.68459 21.3101,-12.68459 9.23783,0 16.76412,4.47993 21.3101,12.68459 l 2.7465,4.95692 0.2984,44.81132 c 0.59797,89.79933 -3.03423,124.63313 -16.01997,153.63611 -6.98454,15.59959 -20.8002,31.93838 -35.01035,41.40423 -23.4439,15.61674 -49.69917,21.6829 -103.04166,23.80728 -27.3035,1.08738 -216.37686,1.03277 -244.33962,-0.0706 z"
     id="path3"
     transform="scale(0.03)" />
</svg>
