<?xml version="1.0" encoding="UTF-8" standalone="no"?>
<!-- Uploaded to: SVG Repo, www.svgrepo.com, Generator: SVG Repo Mixer Tools -->

<svg
   width="800px"
   height="800px"
   viewBox="0 0 24 24"
   fill="none"
   version="1.1"
   id="svg5"
   sodipodi:docname="edit.svg"
   inkscape:version="1.3.2 (091e20ef0f, 2023-11-25, custom)"
   xmlns:inkscape="http://www.inkscape.org/namespaces/inkscape"
   xmlns:sodipodi="http://sodipodi.sourceforge.net/DTD/sodipodi-0.dtd"
   xmlns="http://www.w3.org/2000/svg"
   xmlns:svg="http://www.w3.org/2000/svg">
  <defs
     id="defs5" />
  <sodipodi:namedview
     id="namedview5"
     pagecolor="#ffffff"
     bordercolor="#000000"
     borderopacity="0.25"
     inkscape:showpageshadow="2"
     inkscape:pageopacity="0.0"
     inkscape:pagecheckerboard="0"
     inkscape:deskcolor="#d1d1d1"
     inkscape:zoom="0.735"
     inkscape:cx="399.31973"
     inkscape:cy="400"
     inkscape:window-width="1920"
     inkscape:window-height="1032"
     inkscape:window-x="0"
     inkscape:window-y="0"
     inkscape:window-maximized="1"
     inkscape:current-layer="svg5" />
  <path
     d="M10 21.9948C6.58687 21.9658 4.70529 21.7764 3.46447 20.5355C2 19.0711 2 16.714 2 12C2 7.28595 2 4.92893 3.46447 3.46447C4.92893 2 7.28595 2 12 2C16.714 2 19.0711 2 20.5355 3.46447C21.5093 4.43821 21.8356 5.80655 21.9449 8"
     stroke="#1C274C"
     stroke-width="1.5"
     stroke-linecap="round"
     id="path1" />
  <path
     d="M2.5 7.25C2.08579 7.25 1.75 7.58579 1.75 8C1.75 8.41421 2.08579 8.75 2.5 8.75V7.25ZM22 7.25H2.5V8.75H22V7.25Z"
     fill="#1C274C"
     id="path2" />
  <path
     d="M10.5 2.5L7 8"
     stroke="#1C274C"
     stroke-width="1.5"
     stroke-linecap="round"
     id="path3" />
  <path
     d="M17 2.5L13.5 8"
     stroke="#1C274C"
     stroke-width="1.5"
     stroke-linecap="round"
     id="path4" />
  <path
     d="M18.562 13.9354L18.9791 13.5183C19.6702 12.8272 20.7906 12.8272 21.4817 13.5183C22.1728 14.2094 22.1728 15.3298 21.4817 16.0209L21.0646 16.438M18.562 13.9354C18.562 13.9354 18.6142 14.8217 19.3962 15.6038C20.1783 16.3858 21.0646 16.438 21.0646 16.438M18.562 13.9354L14.7275 17.77C14.4677 18.0297 14.3379 18.1595 14.2262 18.3027C14.0945 18.4716 13.9815 18.6544 13.8894 18.8478C13.8112 19.0117 13.7532 19.1859 13.637 19.5344L13.2651 20.65L13.1448 21.0109M21.0646 16.438L17.23 20.2725C16.9703 20.5323 16.8405 20.6621 16.6973 20.7738C16.5284 20.9055 16.3456 21.0185 16.1522 21.1106C15.9883 21.1888 15.8141 21.2468 15.4656 21.363L14.35 21.7349L13.9891 21.8552M13.9891 21.8552L13.6281 21.9755C13.4567 22.0327 13.2676 21.988 13.1398 21.8602C13.012 21.7324 12.9673 21.5433 13.0245 21.3719L13.1448 21.0109M13.9891 21.8552L13.1448 21.0109"
     stroke="#1C274C"
     stroke-width="1.5"
     id="path5" />
  <path
     style="fill:#ffffff;stroke-width:1.73807"
     d="M 261.90476,755.67082 C 210.10985,752.78165 171.55017,745.18309 142.22416,732.0866 120.84595,722.53946 94.14362,700.02781 80.704053,680.22148 59.724751,649.30359 49.769157,611.74878 44.650138,544.21769 c -2.458634,-32.43478 -2.458634,-256.0006 0,-288.43538 C 51.02757,171.65 65.443669,130.63003 100.44757,97.014752 c 35.75316,-34.334817 79.00159,-48.118218 165.53882,-52.75771 33.53754,-1.798036 234.48968,-1.798036 268.02722,0 85.46496,4.582005 129.57556,18.425776 164.38002,51.589411 35.06891,33.415607 51.18178,77.520257 56.44158,154.493687 1.62393,23.76502 -0.95676,31.79231 -12.03845,37.44576 -5.20935,2.65761 -9.18854,2.69029 -327.61789,2.69029 H 92.834371 l -0.820376,3.06122 c -1.353911,5.0521 -0.912776,199.51516 0.520823,229.59184 4.01953,84.32913 14.695852,120.91637 42.759642,146.5352 29.46178,26.89505 68.646,36.02102 164.70554,38.35982 42.20253,1.02753 43.87137,1.30882 50.61533,8.53169 3.8097,4.08024 7.21652,12.18389 7.17792,17.07381 -0.048,6.0813 -4.70929,14.67491 -10.25657,18.90913 l -5.14045,3.92369 -30.04164,0.17331 c -16.52292,0.0953 -39.22534,-0.33896 -50.44983,-0.96508 z m 5.78966,-587.98375 47.82633,-75.170063 -12.52229,-0.436666 c -17.86461,-0.62296 -62.30885,2.137832 -84.55366,5.252312 -50.79732,7.112107 -80.54912,22.771177 -99.47399,52.355517 -11.94026,18.66562 -20.520981,48.96159 -23.209131,81.94448 l -0.914811,11.22449 h 62.510622 62.51062 z m 216.06365,0.97543 c 25.96974,-40.80706 46.77952,-74.633586 46.24394,-75.170069 -1.14185,-1.14379 -63.98288,-2.664849 -118.63196,-2.87147 -32.50193,-0.122888 -38.40566,0.157137 -39.05623,1.852502 -0.42153,1.098499 -21.50235,34.618907 -46.84627,74.489797 -25.34392,39.87089 -46.52922,73.25783 -47.07848,74.1932 -0.79421,1.35255 15.29078,1.70068 78.57632,1.70068 h 79.57495 z m 221.00383,68.58694 c 0,-8.5731 -3.87287,-33.02929 -7.5147,-47.45352 -12.26093,-48.56176 -38.16264,-74.47153 -87.0494,-87.07645 -26.28049,-6.776142 -17.85809,-14.717175 -68.09375,64.20187 -23.90552,37.55503 -44.52703,70.00401 -45.82555,72.10884 l -2.36095,3.82696 H 599.33973 704.7619 Z"
     id="path6"
     transform="scale(0.03)" />
  <path
     style="fill:#ffffff;stroke-width:1.73807"
     d="m 433.19432,753.88399 c -14.34181,-6.67803 -23.63399,-20.62911 -23.656,-35.51664 -0.01,-6.7849 2.50345,-15.69096 14.88579,-52.74524 15.6357,-46.79003 19.02729,-54.61444 29.91906,-69.02347 3.67665,-4.86395 43.61679,-45.65426 88.75586,-90.64514 81.53138,-81.26372 82.14708,-81.83869 93.63566,-87.44077 22.01516,-10.73506 42.28241,-12.15716 64.43558,-4.52129 13.70925,4.72538 24.2758,11.57532 33.91302,21.98466 9.18165,9.91728 13.52604,17.29973 17.96879,30.53444 7.20539,21.46449 5.63295,41.82456 -4.89815,63.42143 -5.60208,11.48859 -6.17705,12.10428 -87.44076,93.63566 -44.99088,45.13908 -85.7812,85.07921 -90.64514,88.75587 -14.40904,10.89177 -22.23344,14.28336 -69.02347,29.91906 -50.26413,16.79664 -55.02465,17.61343 -67.85024,11.64143 z m 66.85179,-62.10082 c 13.34508,-4.51925 27.97772,-10.15321 32.51699,-12.5199 6.76438,-3.52682 18.74565,-14.73432 66.41649,-62.12719 31.9898,-31.80325 58.12735,-58.15909 58.08346,-58.56853 -0.0439,-0.40943 -4.3977,-3.49952 -9.6751,-6.86687 -10.95015,-6.98695 -27.5023,-23.85137 -34.08187,-34.72484 -2.45439,-4.05617 -4.79754,-7.39222 -5.20696,-7.41344 -0.40945,-0.0212 -26.76528,26.13488 -58.56853,58.12467 -47.39288,47.67085 -58.60037,59.65211 -62.12719,66.41649 -4.28443,8.21745 -20.73673,54.90883 -20.73673,58.85052 0,2.87414 4.03181,7.04592 6.80952,7.04592 1.26839,0 13.22485,-3.69756 26.56992,-8.21683 z M 699.89097,515.86816 c 8.47681,-10.34483 11.1339,-23.70669 7.01141,-35.25868 -8.26363,-23.15618 -37.89182,-30.1332 -56.78048,-13.37098 l -5.82586,5.17 5.25565,10.63409 c 6.95153,14.06547 19.58699,26.84752 33.34209,33.72891 5.49385,2.74847 10.47783,4.99721 11.07549,4.99721 0.59766,0 3.26242,-2.65525 5.9217,-5.90055 z"
     id="path7"
     transform="scale(0.03)" />
</svg>
