<?xml version="1.0" encoding="UTF-8" standalone="no"?>
<!-- Uploaded to: SVG Repo, www.svgrepo.com, Generator: SVG Repo Mixer Tools -->

<svg
   width="800px"
   height="800px"
   viewBox="0 0 24 24"
   fill="none"
   version="1.1"
   id="svg2"
   sodipodi:docname="resend.svg"
   inkscape:version="1.3.2 (091e20ef0f, 2023-11-25, custom)"
   xmlns:inkscape="http://www.inkscape.org/namespaces/inkscape"
   xmlns:sodipodi="http://sodipodi.sourceforge.net/DTD/sodipodi-0.dtd"
   xmlns="http://www.w3.org/2000/svg"
   xmlns:svg="http://www.w3.org/2000/svg">
  <defs
     id="defs2" />
  <sodipodi:namedview
     id="namedview2"
     pagecolor="#ffffff"
     bordercolor="#000000"
     borderopacity="0.25"
     inkscape:showpageshadow="2"
     inkscape:pageopacity="0.0"
     inkscape:pagecheckerboard="0"
     inkscape:deskcolor="#d1d1d1"
     inkscape:zoom="0.735"
     inkscape:cx="399.31973"
     inkscape:cy="400"
     inkscape:window-width="1536"
     inkscape:window-height="772"
     inkscape:window-x="0"
     inkscape:window-y="0"
     inkscape:window-maximized="1"
     inkscape:current-layer="svg2" />
  <path
     d="M13 11L22 2M22 2H16.6562M22 2V7.34375"
     stroke="#1C274C"
     stroke-width="1.5"
     stroke-linecap="round"
     stroke-linejoin="round"
     id="path1" />
  <path
     d="M12 2C6.47715 2 2 6.47715 2 12C2 13.8214 2.48697 15.5291 3.33782 17M22 12C22 17.5228 17.5228 22 12 22C10.1786 22 8.47087 21.513 7 20.6622"
     stroke="#1C274C"
     stroke-width="1.5"
     stroke-linecap="round"
     id="path2" />
  <path
     style="fill:#ffffff;stroke-width:1.73807"
     d="M 103.44202,589.64273 C 95.508453,586.47648 91.516408,581.6265 82.664235,564.39958 63.365527,526.84302 51.273887,488.64178 45.284318,446.30484 42.574544,427.15094 42.237185,376.65405 44.693191,357.82313 59.558663,243.84518 124.77135,145.83823 223.39306,89.258351 273.14244,60.716831 337.3225,42.857143 390.13913,42.857143 c 17.38631,0 22.35445,1.430817 27.91536,8.039581 7.31661,8.695292 8.08101,19.795435 1.98041,28.758105 -5.71527,8.396553 -8.9254,9.769888 -25.73908,11.011455 -26.08812,1.926419 -43.28275,3.954678 -56.39117,6.651843 -92.58736,19.050583 -171.84436,79.830523 -213.96318,164.082263 -20.70548,41.41792 -30.73775,81.01988 -32.353779,127.71526 -1.880128,54.32651 8.356837,101.22956 32.820279,150.37376 11.42464,22.95079 12.21495,25.45552 10.28884,32.60855 -3.63399,13.49559 -19.32731,22.30499 -31.25479,17.54477 z"
     id="path3"
     transform="scale(0.03)" />
  <path
     style="fill:#ffffff;stroke-width:1.73807"
     d="m 357.49684,755.07905 c -35.53629,-4.30149 -74.06931,-15.27083 -107.1567,-30.50474 -24.76577,-11.4025 -33.89284,-17.19054 -37.69565,-23.90511 -9.20136,-16.24671 2.46514,-36.04335 21.24096,-36.04335 3.64307,0 10.04657,2.52631 22.02027,8.68744 47.83312,24.61281 91.01225,35.15924 144.09428,35.19481 36.69446,0.0246 62.62117,-4.09637 97.27891,-15.46209 91.45455,-29.99177 164.33574,-102.3688 195.07573,-193.72628 10.29512,-30.5965 16.43886,-65.18601 16.51877,-93.0013 0.0558,-19.40478 8.80863,-30.12795 24.5922,-30.12795 11.0187,0 19.91326,6.85803 23.22332,17.90604 2.25783,7.53597 -0.39664,44.85612 -4.94029,69.4572 C 723.038,619.00407 597.45774,736.83208 440.98231,755.136 c -20.81664,2.43505 -63.13651,2.40618 -83.48547,-0.0569 z"
     id="path4"
     transform="scale(0.03)" />
  <path
     style="fill:#ffffff;stroke-width:1.73807"
     d="m 423.65158,388.55358 c -10.521,-4.77777 -15.78557,-15.78157 -13.52209,-28.26332 0.843,-4.64863 14.586,-18.84474 132.14037,-136.49701 72.15975,-72.21983 131.19953,-131.743182 131.19953,-132.274118 0,-0.530937 -28.6707,-1.135861 -63.71267,-1.344276 l -63.71267,-0.378938 -5.1429,-3.923689 c -5.66922,-4.325233 -10.22914,-12.886641 -10.22914,-19.205562 0,-6.319327 4.56008,-14.880502 10.22978,-19.205562 l 5.14354,-3.92369 94.66441,-0.397162 c 52.06543,-0.218439 96.63618,-0.04102 99.04612,0.394273 5.85968,1.058384 12.45083,6.817534 15.50991,13.552045 2.34528,5.163142 2.4976,11.182049 2.4976,98.695739 0,104.81757 0.4376,100.18429 -10.23046,108.32121 -4.47896,3.41628 -6.31528,3.92369 -14.19958,3.92369 -7.8843,0 -9.72061,-0.50741 -14.19957,-3.92369 -10.27724,-7.83883 -10.2267,-7.46443 -10.26035,-76.00828 -0.0164,-33.4864 -0.49027,-60.88436 -1.05296,-60.88436 -0.56271,0 -59.18516,58.22526 -130.27211,129.38945 -88.78231,88.87877 -130.95292,130.18891 -134.6912,131.94291 -6.87823,3.22726 -12.11548,3.23008 -19.20556,0.0103 z"
     id="path5"
     transform="scale(0.03)" />
</svg>
